<svg width="138" height="75" viewBox="0 0 138 75" fill="none" xmlns="http://www.w3.org/2000/svg">
<g id="Face">
<g id="Mouth/Default">
<path id="Mouth" fill-rule="evenodd" clip-rule="evenodd" d="M55 61C55 68.732 61.268 75 69 75C76.732 75 83 68.732 83 61" fill="black" fill-opacity="0.7"/>
</g>
<g id="Nose/Default">
<path id="Nose" fill-rule="evenodd" clip-rule="evenodd" d="M57 42C57 46.4183 62.3726 50 69 50C75.6274 50 81 46.4183 81 42" fill="black" fill-opacity="0.16"/>
</g>
<g id="Eyes/Surprised &#240;&#159;&#152;&#179;">
<path id="The White Stuff" d="M43 38C50.732 38 57 31.732 57 24C57 16.268 50.732 10 43 10C35.268 10 29 16.268 29 24C29 31.732 35.268 38 43 38Z" fill="white"/>
<path id="Eye Ball" d="M95 38C102.732 38 109 31.732 109 24C109 16.268 102.732 10 95 10C87.268 10 81 16.268 81 24C81 31.732 87.268 38 95 38Z" fill="white"/>
<path id="Eye" d="M43 30C46.3137 30 49 27.3137 49 24C49 20.6863 46.3137 18 43 18C39.6863 18 37 20.6863 37 24C37 27.3137 39.6863 30 43 30Z" fill="black" fill-opacity="0.7"/>
<path id="Eye_2" d="M95 30C98.3137 30 101 27.3137 101 24C101 20.6863 98.3137 18 95 18C91.6863 18 89 20.6863 89 24C89 27.3137 91.6863 30 95 30Z" fill="black" fill-opacity="0.7"/>
</g>
<g id="Eyebrow/Outline/Default">
<g id="I Browse">
<path id="Eyebrow" d="M28.6302 11.1586C32.5451 5.64988 43.2778 2.56085 52.5229 4.83119C53.5956 5.09462 54.6788 4.43857 54.9422 3.36587C55.2056 2.29317 54.5496 1.21003 53.4769 0.946608C42.7403 -1.69001 30.312 1.88701 25.3697 8.84143C24.7298 9.74179 24.941 10.9904 25.8413 11.6303C26.7417 12.2701 27.9903 12.0589 28.6302 11.1586Z" fill="black" fill-opacity="0.6"/>
<path id="Eyebrow_2" d="M109.37 11.1586C105.455 5.64988 94.7224 2.56085 85.4773 4.83119C84.4046 5.09462 83.3215 4.43857 83.058 3.36587C82.7946 2.29317 83.4507 1.21003 84.5234 0.946608C95.26 -1.69001 107.688 1.88701 112.631 8.84143C113.27 9.74179 113.059 10.9904 112.159 11.6303C111.259 12.2701 110.01 12.0589 109.37 11.1586Z" fill="black" fill-opacity="0.6"/>
</g>
</g>
<g id="Top/ Resources/Prescription 02">
<g id="Wayfarers" filter="url(#filter0_d_1413_297)">
<path id="Left" d="M38 45H35.2421C21.3147 45 13 37.3359 13 24.5C13 14.127 14.817 4 36.5299 4H39.4701C61.183 4 63 14.127 63 24.5C63 36.5686 52.7213 45 38 45ZM36.3854 10C17 10 17 16.841 17 25.5016C17 32.5719 20.1163 41 34.9709 41H38C50.3649 41 59 34.627 59 25.5016C59 16.841 59 10 39.6146 10H36.3854Z" fill="#252C2F"/>
<path id="Right" d="M100 45H97.2421C83.3147 45 75 37.3359 75 24.5C75 14.127 76.817 4 98.5299 4H101.47C123.183 4 125 14.127 125 24.5C125 36.5686 114.721 45 100 45ZM98.3854 10C79 10 79 16.841 79 25.5016C79 32.5719 82.1195 41 96.9709 41H100C112.365 41 121 34.627 121 25.5016C121 16.841 121 10 101.615 10H98.3854Z" fill="#252C2F"/>
<path id="Stuff" d="M6.95455 9.77156C7.64591 9.09629 15.2095 4 36.5 4C54.3514 4 58.1302 5.85267 63.8502 8.65188L64.2689 8.85851C64.6666 8.99902 66.7002 9.68983 69.0791 9.7658C71.2463 9.67279 73.1 9.0854 73.6417 8.8972C80.1704 5.72209 86.5611 4 101.5 4C122.79 4 130.354 9.09629 131.045 9.77156C132.679 9.77156 134 11.0615 134 12.6573V15.5431C134 17.139 132.679 18.4289 131.045 18.4289C131.045 18.4289 124.144 18.4289 124.144 21.3147C124.144 24.2005 122.182 17.139 122.182 15.5431V12.7324C118.579 11.3534 112.128 8.78618 101.5 8.78618C89.6585 8.78618 83.7611 10.886 78.7023 12.9711L78.7589 13.1075L78.7564 15.0938L76.5392 20.4436L73.8005 19.3608C73.5559 19.2641 73.0281 19.0904 72.2963 18.9099C70.2563 18.4067 68.1589 18.2536 66.3041 18.6343C65.6236 18.774 64.9922 18.9836 64.4128 19.2667L61.7705 20.5579L59.1267 15.3962L59.2441 13.1018L59.3248 12.9068C54.9621 10.8739 50.9393 8.78618 36.5 8.78618C25.8721 8.78618 19.4221 11.3524 15.8182 12.7315V15.5431C15.8182 17.139 12.8636 24.2005 12.8636 21.3147C12.8636 18.4289 6.95455 18.4289 6.95455 18.4289C5.32364 18.4289 4 17.139 4 15.5431V12.6573C4 11.0615 5.32364 9.77156 6.95455 9.77156Z" fill="#252C2F"/>
</g>
</g>
</g>
<defs>
<filter id="filter0_d_1413_297" x="0" y="2" width="138" height="49" filterUnits="userSpaceOnUse" color-interpolation-filters="sRGB">
<feFlood flood-opacity="0" result="BackgroundImageFix"/>
<feColorMatrix in="SourceAlpha" type="matrix" values="0 0 0 0 0 0 0 0 0 0 0 0 0 0 0 0 0 0 127 0" result="hardAlpha"/>
<feOffset dy="2"/>
<feGaussianBlur stdDeviation="2"/>
<feColorMatrix type="matrix" values="0 0 0 0 0 0 0 0 0 0 0 0 0 0 0 0 0 0 0.2 0"/>
<feBlend mode="normal" in2="BackgroundImageFix" result="effect1_dropShadow_1413_297"/>
<feBlend mode="normal" in="SourceGraphic" in2="effect1_dropShadow_1413_297" result="shape"/>
</filter>
</defs>
</svg>
