<svg width="88" height="70" viewBox="0 0 88 70" fill="none" xmlns="http://www.w3.org/2000/svg">
<g id="Face">
<g id="Mouth/Serious">
<path id="Why so serious?" d="M53 64H35C33.3431 64 32 65.3431 32 67C32 68.6569 33.3431 70 35 70H53C54.6569 70 56 68.6569 56 67C56 65.3431 54.6569 64 53 64Z" fill="black" fill-opacity="0.7"/>
</g>
<g id="Nose/Default">
<path id="Nose" fill-rule="evenodd" clip-rule="evenodd" d="M32 42C32 46.4183 37.3726 50 44 50C50.6274 50 56 46.4183 56 42" fill="black" fill-opacity="0.16"/>
</g>
<g id="Eyes/Closed &#240;&#159;&#152;&#140;">
<path id="Closed Eye" fill-rule="evenodd" clip-rule="evenodd" d="M4.16017 29.5527C6.00668 33.3515 10.1644 36 14.9976 36C19.8137 36 23.9591 33.3702 25.8154 29.5929C26.3668 28.4708 25.5821 27.5525 24.7906 28.233C22.3395 30.3402 18.8587 31.6562 14.9976 31.6562C11.2572 31.6562 7.87376 30.4212 5.43754 28.4284C4.54679 27.6997 3.6201 28.4416 4.16017 29.5527Z" fill="black" fill-opacity="0.6"/>
<path id="Closed Eye_2" fill-rule="evenodd" clip-rule="evenodd" d="M62.1602 29.5527C64.0067 33.3515 68.1644 36 72.9976 36C77.8137 36 81.9591 33.3702 83.8154 29.5929C84.3668 28.4708 83.5821 27.5525 82.7906 28.233C80.3395 30.3402 76.8587 31.6562 72.9976 31.6562C69.2572 31.6562 65.8738 30.4212 63.4375 28.4284C62.5468 27.6997 61.6201 28.4416 62.1602 29.5527Z" fill="black" fill-opacity="0.6"/>
</g>
<g id="Eyebrow/Outline/Default">
<g id="I Browse">
<path id="Eyebrow" d="M3.63016 11.1586C7.54507 5.64988 18.2778 2.56085 27.5229 4.83119C28.5956 5.09462 29.6788 4.43857 29.9422 3.36587C30.2056 2.29317 29.5496 1.21003 28.4769 0.946608C17.7403 -1.69001 5.31202 1.88701 0.36967 8.84143C-0.270194 9.74179 -0.0590211 10.9904 0.841339 11.6303C1.7417 12.2701 2.9903 12.0589 3.63016 11.1586Z" fill="black" fill-opacity="0.6"/>
<path id="Eyebrow_2" d="M84.3701 11.1586C80.4552 5.64988 69.7224 2.56085 60.4773 4.83119C59.4046 5.09462 58.3215 4.43857 58.058 3.36587C57.7946 2.29317 58.4507 1.21003 59.5234 0.946608C70.26 -1.69001 82.6882 1.88701 87.6306 8.84143C88.2704 9.74179 88.0593 10.9904 87.1589 11.6303C86.2585 12.2701 85.0099 12.0589 84.3701 11.1586Z" fill="black" fill-opacity="0.6"/>
</g>
</g>
</g>
</svg>
