<svg width="200" height="97" viewBox="0 0 200 97" fill="none" xmlns="http://www.w3.org/2000/svg">
<g id="Clothing/Hoodie">
<mask id="mask0_1_1074" style="mask-type:alpha" maskUnits="userSpaceOnUse" x="0" y="0" width="200" height="97">
<g id="react mask 4285">
<path id="Vector" fill-rule="evenodd" clip-rule="evenodd" d="M76 0.0709229C58.0813 2.07598 44.2798 7.55187 44.0042 21.645C18.1464 32.5681 0 58.1647 0 87.9995V97H200V87.9995C200 58.1647 181.854 32.5681 155.996 21.645C155.72 7.55187 141.919 2.07598 124 0.0709229V19C124 32.2549 113.255 43 100 43C86.7452 43 76 32.2549 76 19V0.0709229Z" fill="white"/>
</g>
</mask>
<g mask="url(#mask0_1_1074)">
<path id="Hoodie" fill-rule="evenodd" clip-rule="evenodd" d="M76 0.0709229C58.0813 2.07598 44.2798 7.55187 44.0042 21.645C18.1464 32.5681 0 58.1647 0 87.9995V97H200V87.9995C200 58.1647 181.854 32.5681 155.996 21.645C155.72 7.55187 141.919 2.07598 124 0.0709229V19C124 32.2549 113.255 43 100 43C86.7452 43 76 32.2549 76 19V0.0709229Z" fill="#B7C1DB"/>
<g id="Color/Palette/Gray 01">
<path id="&#240;&#159;&#150;&#141;Color" d="M232 -12.9999H-32V97.0001H232V-12.9999Z" fill="#B1E2FF"/>
</g>
<path id="Straps" fill-rule="evenodd" clip-rule="evenodd" d="M70 48.7391V97H63V45.1503C65.2038 46.4601 67.5468 47.6608 70 48.7391ZM137 45.1503V85.5C137 87.433 135.433 89 133.5 89C131.567 89 130 87.433 130 85.5V48.7391C132.453 47.6608 134.796 46.4601 137 45.1503Z" fill="#F4F4F4"/>
<path id="Shadow" fill-rule="evenodd" clip-rule="evenodd" d="M58.9601 -0.275635C43.9093 2.57119 33.5 8.2429 33.5 19.3077C33.5 39.02 66.5377 55 100 55C133.462 55 166.5 39.02 166.5 19.3077C166.5 8.2429 156.091 2.57119 141.04 -0.275635C150.125 3.07447 156 8.70607 156 18.0769C156 38.469 128.179 55 100 55C71.8212 55 44 38.469 44 18.0769C44 8.70607 49.8751 3.07447 58.9601 -0.275635Z" fill="black" fill-opacity="0.16"/>
</g>
</g>
</svg>
