<svg width="200" height="97" viewBox="0 0 200 97" fill="none" xmlns="http://www.w3.org/2000/svg">
<g id="Clothing/Hoodie">
<mask id="mask0_1_955" style="mask-type:alpha" maskUnits="userSpaceOnUse" x="0" y="0" width="200" height="97">
<g id="react mask 4562">
<path id="Vector" fill-rule="evenodd" clip-rule="evenodd" d="M76 0C58.0813 2.00505 44.2798 7.48095 44.0042 21.5741C18.1464 32.4972 0 58.0937 0 87.9286V96.9291H200V87.9286C200 58.0937 181.854 32.4972 155.996 21.5741C155.72 7.48095 141.919 2.00505 124 0V18.9291C124 32.1839 113.255 42.9291 100 42.9291C86.7452 42.9291 76 32.1839 76 18.9291V0Z" fill="white"/>
</g>
</mask>
<g mask="url(#mask0_1_955)">
<path id="Hoodie" fill-rule="evenodd" clip-rule="evenodd" d="M76 0C58.0813 2.00505 44.2798 7.48095 44.0042 21.5741C18.1464 32.4972 0 58.0937 0 87.9286V96.9291H200V87.9286C200 58.0937 181.854 32.4972 155.996 21.5741C155.72 7.48095 141.919 2.00505 124 0V18.9291C124 32.1839 113.255 42.9291 100 42.9291C86.7452 42.9291 76 32.1839 76 18.9291V0Z" fill="#B7C1DB"/>
<g id="Color/Palette/Gray 01">
<path id="&#240;&#159;&#150;&#141;Color" d="M232 -13.0709H-32V96.9291H232V-13.0709Z" fill="#FF5C5C"/>
</g>
<path id="Straps" fill-rule="evenodd" clip-rule="evenodd" d="M70 48.6681V96.9291H63V45.0793C65.2038 46.3891 67.5468 47.5899 70 48.6681ZM137 45.0793V85.4291C137 87.3621 135.433 88.9291 133.5 88.9291C131.567 88.9291 130 87.3621 130 85.4291V48.6681C132.453 47.5899 134.796 46.3891 137 45.0793Z" fill="#F4F4F4"/>
<path id="Shadow" fill-rule="evenodd" clip-rule="evenodd" d="M58.9601 -0.346558C43.9093 2.50027 33.5 8.17197 33.5 19.2368C33.5 38.9491 66.5377 54.9291 100 54.9291C133.462 54.9291 166.5 38.9491 166.5 19.2368C166.5 8.17197 156.091 2.50027 141.04 -0.346558C150.125 3.00355 156 8.63514 156 18.006C156 38.3981 128.179 54.9291 100 54.9291C71.8212 54.9291 44 38.3981 44 18.006C44 8.63514 49.8751 3.00355 58.9601 -0.346558Z" fill="black" fill-opacity="0.16"/>
</g>
</g>
</svg>
