<svg width="234" height="267" viewBox="0 0 234 267" fill="none" xmlns="http://www.w3.org/2000/svg">
<mask id="mask0_1413_311" style="mask-type:alpha" maskUnits="userSpaceOnUse" x="0" y="0" width="234" height="267">
<path fill-rule="evenodd" clip-rule="evenodd" d="M222.385 182.806C217.011 188.518 211.648 192.128 211.831 198C212.148 209.889 255.439 245.051 217 267H16.0053C-22.4338 245.051 20.8572 209.889 21.1741 198C21.3569 192.128 15.9941 188.518 10.6205 182.806C5.24691 177.094 -0.137363 169.28 0.00267374 155C0.944498 125.972 31.3717 128.588 31.2027 109C31.3717 89.9993 19.8139 82.1607 31.2027 46C42.8396 9.53933 72.9166 0.768172 116.003 0.0159929V0C116.17 0.00242681 116.336 0.00497053 116.503 0.00763226C116.669 0.00497053 116.836 0.00242681 117.003 0V0.0159929C160.089 0.768172 190.166 9.53933 201.803 46C213.191 82.1607 201.634 89.9993 201.803 109C201.634 128.588 232.061 125.972 233.003 155C233.143 169.28 227.758 177.094 222.385 182.806ZM182.884 95.325C161.364 83.7374 142.89 67.1443 130.846 48.3024C112.764 73.9237 76.5299 78.5348 51.2241 94.68C51.0771 95.4306 51 96.2063 51 97V110C51 116.019 55.4309 121.002 61.2086 121.867C62.9518 142.115 75.4692 159.283 93 167.611V186H89C49.2355 186 17 218.235 17 258V267H217V258C217 218.235 184.765 186 145 186H141V167.611C158.531 159.283 171.048 142.115 172.791 121.867C178.569 121.002 183 116.019 183 110V97C183 96.4316 182.96 95.8723 182.884 95.325Z" fill="white"/>
</mask>
<g mask="url(#mask0_1413_311)">
<path fill-rule="evenodd" clip-rule="evenodd" d="M222.385 182.806C217.011 188.518 211.648 192.128 211.831 198C212.148 209.889 255.439 245.051 217 267H16.0053C-22.4338 245.051 20.8572 209.889 21.1741 198C21.3569 192.128 15.9941 188.518 10.6205 182.806C5.24691 177.094 -0.137363 169.28 0.00267374 155C0.944498 125.972 31.3717 128.588 31.2027 109C31.3717 89.9993 19.8139 82.1607 31.2027 46C42.8396 9.53933 72.9166 0.768172 116.003 0.0159929V0C116.17 0.00242681 116.336 0.00497053 116.503 0.00763226C116.669 0.00497053 116.836 0.00242681 117.003 0V0.0159929C160.089 0.768172 190.166 9.53933 201.803 46C213.191 82.1607 201.634 89.9993 201.803 109C201.634 128.588 232.061 125.972 233.003 155C233.143 169.28 227.758 177.094 222.385 182.806ZM182.884 95.325C161.364 83.7374 142.89 67.1443 130.846 48.3024C112.764 73.9237 76.5299 78.5348 51.2241 94.68C51.0771 95.4306 51 96.2063 51 97V110C51 116.019 55.4309 121.002 61.2086 121.867C62.9518 142.115 75.4692 159.283 93 167.611V186H89C49.2355 186 17 218.235 17 258V267H217V258C217 218.235 184.765 186 145 186H141V167.611C158.531 159.283 171.048 142.115 172.791 121.867C178.569 121.002 183 116.019 183 110V97C183 96.4316 182.96 95.8723 182.884 95.325Z" fill="#314756"/>
<path d="M233 0H0V267H233V0Z" fill="#4A312C"/>
</g>
<path fill-rule="evenodd" clip-rule="evenodd" d="M30.0988 115.057C27.725 118.083 24.5295 122.528 24.3618 122.194C26.2344 119.811 27.3747 117.012 27.3409 113.436C27.5175 95.3349 15.4366 87.8674 27.3409 53.4186C28.0096 51.509 29.1069 49.7045 30.5858 48.0049C20.2433 82.4587 31.3684 90.3556 31.2026 109C31.2224 111.295 30.8223 113.285 30.0988 115.057ZM202.419 48.0049C203.898 49.7045 204.996 51.509 205.664 53.4186C215.822 82.813 208.516 92.5628 206.264 106.036C205.964 106.841 206.195 107.79 205.88 108.603C175.207 98.1454 147.59 78.5596 131.495 55.6119C108.711 85.0358 58.3543 85.3732 33.6737 110.936C34.0606 110.392 34.428 109.885 34.7584 109.446C57.294 79.5274 108.247 80.3241 130.846 48.3024C146.243 72.3904 172.664 92.9495 202.009 103.927C202.31 103.073 202.09 102.077 202.376 101.233C204.484 87.4003 211.215 77.3069 202.419 48.0049Z" fill="black" fill-opacity="0.16"/>
<path fill-rule="evenodd" clip-rule="evenodd" d="M34.7586 109.446C57.2941 79.5274 108.247 80.3241 130.846 48.3024C146.244 72.3904 172.665 92.9495 202.009 103.927C202.311 103.073 202.09 102.077 202.376 101.233C204.531 87.0894 211.52 76.8552 201.803 46C190.166 9.53933 160.089 0.768172 117.003 0.0159931C116.336 0.00497072 116.17 0.0024268 116.003 0C72.9167 0.768172 42.8397 9.53933 31.2028 46C19.814 82.1607 31.3718 89.9993 31.2028 109C31.2352 112.753 30.1442 115.691 28.3527 118.193C28.5362 118.595 32.5063 112.437 34.7586 109.446Z" fill="white" fill-opacity="0.1"/>
</svg>
