<svg width="147" height="168" viewBox="0 0 147 168" fill="none" xmlns="http://www.w3.org/2000/svg">
<mask id="mask0_1419_490" style="mask-type:alpha" maskUnits="userSpaceOnUse" x="0" y="0" width="147" height="168">
<path fill-rule="evenodd" clip-rule="evenodd" d="M126.126 142.898C126.841 145.137 127.875 147.23 129.555 148.686C131.176 150.09 134.068 149.745 136.099 149.803C137.771 149.851 139.445 149.856 141.114 149.784C141.954 149.747 142.328 150.798 141.649 151.282C141.519 151.374 141.389 151.463 141.258 151.544C140.208 152.199 139.118 152.803 138.009 153.356C135.485 154.614 132.821 155.6 130.027 156.09C128.111 156.426 126.211 156.49 124.373 156.266C124.859 156.987 125.42 157.642 126.071 158.208C127.801 159.708 130.888 159.34 133.055 159.401C134.839 159.452 136.626 159.458 138.408 159.381C139.303 159.342 139.702 160.465 138.978 160.982C138.839 161.081 138.701 161.175 138.562 161.262C137.44 161.962 136.278 162.608 135.093 163.199C132.4 164.543 129.557 165.597 126.575 166.121C121.075 167.087 115.706 165.944 111.381 162.413C110.164 161.42 109.027 160.288 108 159.053V156.611C114.95 153.309 121.111 148.619 126.126 142.898ZM32.315 127.594C31.5727 129.139 30.8051 130.672 30.0058 132.191C25.2106 141.3 19.2421 152.793 7.49928 153.596C6.41049 153.671 5.98039 154.943 6.8287 155.588C17.9485 164.041 43.2609 169.187 52.2735 167.57C55.0952 167.063 57.6388 166.402 60 165.61V156.611C47.5625 150.702 37.6484 140.344 32.315 127.594ZM146.906 44.6796C147.081 50.1868 146.289 55.907 145.184 61.2955C144.19 66.1482 140.87 69.9713 139.837 74.7288C135.81 61.0481 120.433 56.4838 111.242 47.1547C113.239 50.9478 116.291 54.1025 118.294 57.8328C109.047 52.1675 100.088 43.9536 96.2622 33.5378C95.5546 38.9359 93.5459 43.9275 90.154 48.2034C87.1426 52.0001 82.5724 56.0743 77.8588 57.5444C80.2865 52.0372 82.3613 46.3269 84.2664 40.6189C82.2497 43.2356 75.5686 54.3526 73.8911 57.1085C72.2348 59.8297 70.3777 62.4262 68.3838 64.9119C67.4506 66.0751 66.4553 67.1992 65.453 68.3028C64.8693 68.9458 64.274 69.5781 63.6659 70.1979C63.4508 70.4168 61.8236 72.207 62.7538 71.0035C60.5376 73.8061 57.2762 75.9826 54.4432 78.1125C51.5907 80.2569 48.4833 82.0811 45.2522 83.5892C38.0932 86.9315 30.7402 88.1483 22.9327 86.752C24.1275 87.0509 26.6533 85.906 27.8887 85.57C29.698 85.0775 31.3626 84.4528 33.0017 83.5462C36.2753 81.7352 39.3514 79.5759 42.1778 77.1279C39.4707 78.2801 37.2726 80.4616 34.5136 81.671C32.227 82.6735 29.9669 83.1967 27.4817 83.4371C22.0203 83.9659 15.4866 82.7168 10.7607 79.8494C5.26856 76.5174 2.21856 70.7988 0.771685 64.7128C-0.90874 57.6459 0.135458 49.6725 4.09917 43.6388C4.23362 45.7815 8.53494 46.7033 12.0154 46.1662C21.6728 44.6753 27.418 8.11834 52.4417 1.59977C72.403 -3.60053 86.6514 5.4742 87.8621 6.2567C89.2994 7.18537 89.8504 6.79644 91.4832 6.40519C97.8294 4.88452 104.741 4.19596 111.188 5.47817C117.528 6.73955 123.606 10.0243 128.747 13.8561C138.274 20.9574 146.508 32.4378 146.906 44.6796Z" fill="white"/>
</mask>
<g mask="url(#mask0_1419_490)">
<path fill-rule="evenodd" clip-rule="evenodd" d="M126.126 142.898C126.841 145.137 127.875 147.23 129.555 148.686C131.176 150.09 134.068 149.745 136.099 149.803C137.771 149.851 139.445 149.856 141.114 149.784C141.954 149.747 142.328 150.798 141.649 151.282C141.519 151.374 141.389 151.463 141.258 151.544C140.208 152.199 139.118 152.803 138.009 153.356C135.485 154.614 132.821 155.6 130.027 156.09C128.111 156.426 126.211 156.49 124.373 156.266C124.859 156.987 125.42 157.642 126.071 158.208C127.801 159.708 130.888 159.34 133.055 159.401C134.839 159.452 136.626 159.458 138.408 159.381C139.303 159.342 139.702 160.465 138.978 160.982C138.839 161.081 138.701 161.175 138.562 161.262C137.44 161.962 136.278 162.608 135.093 163.199C132.4 164.543 129.557 165.597 126.575 166.121C121.075 167.087 115.706 165.944 111.381 162.413C110.164 161.42 109.027 160.288 108 159.053V156.611C114.95 153.309 121.111 148.619 126.126 142.898ZM32.315 127.594C31.5727 129.139 30.8051 130.672 30.0058 132.191C25.2106 141.3 19.2421 152.793 7.49928 153.596C6.41049 153.671 5.98039 154.943 6.8287 155.588C17.9485 164.041 43.2609 169.187 52.2735 167.57C55.0952 167.063 57.6388 166.402 60 165.61V156.611C47.5625 150.702 37.6484 140.344 32.315 127.594ZM146.906 44.6796C147.081 50.1868 146.289 55.907 145.184 61.2955C144.19 66.1482 140.87 69.9713 139.837 74.7288C135.81 61.0481 120.433 56.4838 111.242 47.1547C113.239 50.9478 116.291 54.1025 118.294 57.8328C109.047 52.1675 100.088 43.9536 96.2622 33.5378C95.5546 38.9359 93.5459 43.9275 90.154 48.2034C87.1426 52.0001 82.5724 56.0743 77.8588 57.5444C80.2865 52.0372 82.3613 46.3269 84.2664 40.6189C82.2497 43.2356 75.5686 54.3526 73.8911 57.1085C72.2348 59.8297 70.3777 62.4262 68.3838 64.9119C67.4506 66.0751 66.4553 67.1992 65.453 68.3028C64.8693 68.9458 64.274 69.5781 63.6659 70.1979C63.4508 70.4168 61.8236 72.207 62.7538 71.0035C60.5376 73.8061 57.2762 75.9826 54.4432 78.1125C51.5907 80.2569 48.4833 82.0811 45.2522 83.5892C38.0932 86.9315 30.7402 88.1483 22.9327 86.752C24.1275 87.0509 26.6533 85.906 27.8887 85.57C29.698 85.0775 31.3626 84.4528 33.0017 83.5462C36.2753 81.7352 39.3514 79.5759 42.1778 77.1279C39.4707 78.2801 37.2726 80.4616 34.5136 81.671C32.227 82.6735 29.9669 83.1967 27.4817 83.4371C22.0203 83.9659 15.4866 82.7168 10.7607 79.8494C5.26856 76.5174 2.21856 70.7988 0.771685 64.7128C-0.90874 57.6459 0.135458 49.6725 4.09917 43.6388C4.23362 45.7815 8.53494 46.7033 12.0154 46.1662C21.6728 44.6753 27.418 8.11834 52.4417 1.59977C72.403 -3.60053 86.6514 5.4742 87.8621 6.2567C89.2994 7.18537 89.8504 6.79644 91.4832 6.40519C97.8294 4.88452 104.741 4.19596 111.188 5.47817C117.528 6.73955 123.606 10.0243 128.747 13.8561C138.274 20.9574 146.508 32.4378 146.906 44.6796Z" fill="#1D2633"/>
<path d="M215 -24.0001H-49V256H215V-24.0001Z" fill="#A55728"/>
<path fill-rule="evenodd" clip-rule="evenodd" d="M126.126 142.898C126.841 145.137 127.875 147.23 129.555 148.686C131.176 150.09 134.068 149.745 136.099 149.803C137.771 149.851 139.445 149.856 141.114 149.784C141.954 149.747 142.328 150.798 141.649 151.282C141.519 151.374 141.389 151.463 141.258 151.544C140.208 152.199 139.118 152.803 138.009 153.356C135.485 154.614 132.821 155.6 130.027 156.09C128.111 156.426 126.211 156.49 124.373 156.266C124.859 156.987 125.42 157.642 126.071 158.208C127.801 159.708 130.888 159.34 133.055 159.401C134.839 159.452 136.626 159.458 138.408 159.381C139.303 159.342 139.702 160.465 138.978 160.982C138.839 161.081 138.701 161.175 138.562 161.262C137.44 161.962 136.278 162.608 135.093 163.199C132.4 164.543 129.557 165.597 126.575 166.121C121.075 167.087 115.706 165.944 111.381 162.413C110.164 161.42 109.027 160.288 108 159.053V156.611C114.95 153.309 121.111 148.619 126.126 142.898ZM32.315 127.594C31.5727 129.139 30.8051 130.672 30.0058 132.191C25.2106 141.3 19.2421 152.793 7.49928 153.596C6.41049 153.671 5.9804 154.943 6.8287 155.588C17.9485 164.041 43.2609 169.187 52.2735 167.57C55.0952 167.063 57.6388 166.402 60 165.61V156.611C47.5625 150.702 37.6484 140.344 32.315 127.594Z" fill="black" fill-opacity="0.16"/>
</g>
</svg>
