<svg width="118" height="82" viewBox="0 0 118 82" fill="none" xmlns="http://www.w3.org/2000/svg">
<mask id="mask0_1408_122" style="mask-type:alpha" maskUnits="userSpaceOnUse" x="0" y="0" width="118" height="82">
<path fill-rule="evenodd" clip-rule="evenodd" d="M106.154 22.9204C103.394 20.1004 100.19 17.7068 97.0732 15.3066C96.3855 14.7774 95.6868 14.2611 95.0145 13.7118C94.8616 13.587 93.2959 12.4657 93.1086 12.0531C92.6577 11.0603 92.919 11.8333 92.9812 10.6486C93.0598 9.15051 96.1146 4.91932 93.8351 3.94901C92.8323 3.52223 91.0435 4.65795 90.0816 5.03306C88.2001 5.76717 86.2956 6.39324 84.3507 6.93309C85.2825 5.07634 87.0593 1.3595 83.7198 2.3543C81.1183 3.12934 78.694 5.12197 76.0797 6.0594C76.9446 4.64151 80.4038 0.247934 77.2781 0.00233662C76.3055 -0.074161 73.4751 1.75037 72.4279 2.13957C69.2911 3.30549 66.0872 4.05906 62.7939 4.65258C51.5959 6.67071 38.5012 6.0953 28.1407 11.1935C20.1534 15.1237 12.2664 21.222 7.65229 28.9875C3.20508 36.4726 1.54172 44.6642 0.610872 53.2413C-0.0721309 59.5359 -0.127652 66.0426 0.191774 72.36C0.296131 74.4298 0.528931 83.9709 3.53588 81.0814C5.03401 79.6417 5.02296 73.8282 5.40026 71.8604C6.15116 67.9453 6.87397 64.0127 8.12592 60.2227C10.3321 53.5439 12.9347 46.4297 18.4308 41.8297C21.9579 38.8782 24.4347 34.8889 27.8099 31.9112C29.3261 30.5739 28.1691 30.7131 30.6068 30.8886C32.2444 31.0063 33.8894 31.0513 35.5303 31.0942C39.3263 31.1929 43.1283 31.1677 46.9253 31.1811C54.5721 31.2087 62.1832 31.3167 69.8226 30.9164C73.2176 30.7386 76.6219 30.6423 80.0078 30.3283C81.8993 30.1528 85.2554 28.9406 86.8124 29.8669C88.2373 30.7144 89.717 33.4818 90.7402 34.6151C93.1574 37.2936 96.0396 39.3392 98.8663 41.5355C104.76 46.115 107.736 51.8667 109.526 59.0232C111.31 66.1533 110.81 72.7682 113.017 79.7848C113.406 81.0185 114.433 83.145 115.699 81.2389C115.934 80.885 115.873 78.939 115.873 77.8193C115.873 73.2996 117.018 69.9084 117.004 65.3591C116.947 51.5272 116.5 33.4908 106.154 22.9204Z" fill="white"/>
</mask>
<g mask="url(#mask0_1408_122)">
<path fill-rule="evenodd" clip-rule="evenodd" d="M106.154 22.9204C103.394 20.1004 100.19 17.7068 97.0732 15.3066C96.3855 14.7774 95.6868 14.2611 95.0145 13.7118C94.8616 13.587 93.2959 12.4657 93.1086 12.0531C92.6577 11.0603 92.919 11.8333 92.9812 10.6486C93.0598 9.15051 96.1146 4.91932 93.8351 3.94901C92.8323 3.52223 91.0435 4.65795 90.0816 5.03306C88.2001 5.76717 86.2956 6.39324 84.3507 6.93309C85.2825 5.07634 87.0593 1.3595 83.7198 2.3543C81.1183 3.12934 78.694 5.12197 76.0797 6.0594C76.9446 4.64151 80.4038 0.247934 77.2781 0.00233662C76.3055 -0.074161 73.4751 1.75037 72.4279 2.13957C69.2911 3.30549 66.0872 4.05906 62.7939 4.65258C51.5959 6.67071 38.5012 6.0953 28.1407 11.1935C20.1534 15.1237 12.2664 21.222 7.65229 28.9875C3.20508 36.4726 1.54172 44.6642 0.610872 53.2413C-0.0721309 59.5359 -0.127652 66.0426 0.191774 72.36C0.296131 74.4298 0.528931 83.9709 3.53588 81.0814C5.03401 79.6417 5.02296 73.8282 5.40026 71.8604C6.15116 67.9453 6.87397 64.0127 8.12592 60.2227C10.3321 53.5439 12.9347 46.4297 18.4308 41.8297C21.9579 38.8782 24.4347 34.8889 27.8099 31.9112C29.3261 30.5739 28.1691 30.7131 30.6068 30.8886C32.2444 31.0063 33.8894 31.0513 35.5303 31.0942C39.3263 31.1929 43.1283 31.1677 46.9253 31.1811C54.5721 31.2087 62.1832 31.3167 69.8226 30.9164C73.2176 30.7386 76.6219 30.6423 80.0078 30.3283C81.8993 30.1528 85.2554 28.9406 86.8124 29.8669C88.2373 30.7144 89.717 33.4818 90.7402 34.6151C93.1574 37.2936 96.0396 39.3392 98.8663 41.5355C104.76 46.115 107.736 51.8667 109.526 59.0232C111.31 66.1533 110.81 72.7682 113.017 79.7848C113.406 81.0185 114.433 83.145 115.699 81.2389C115.934 80.885 115.873 78.939 115.873 77.8193C115.873 73.2996 117.018 69.9084 117.004 65.3591C116.947 51.5272 116.5 33.4908 106.154 22.9204Z" fill="#1F3140"/>
</g>
</svg>
