<svg width="200" height="244" viewBox="0 0 200 244" fill="none" xmlns="http://www.w3.org/2000/svg">
<mask id="mask0_1_1066" style="mask-type:alpha" maskUnits="userSpaceOnUse" x="0" y="0" width="200" height="244">
<path d="M124 144.611V163H128C167.764 163 200 195.236 200 235V244H0V235C0 195.236 32.2355 163 72 163H76V144.611C58.7626 136.422 46.3722 119.687 44.3051 99.8812C38.4803 99.0578 34 94.0521 34 88V74C34 68.054 38.3246 63.1181 44 62.1659V56C44 25.0721 69.0721 0 100 0C130.928 0 156 25.0721 156 56V62.1659C161.675 63.1181 166 68.054 166 74V88C166 94.0521 161.52 99.0578 155.695 99.8812C153.628 119.687 141.237 136.422 124 144.611Z" fill="white"/>
</mask>
<g mask="url(#mask0_1_1066)">
<path d="M124 144.611V163H128C167.764 163 200 195.236 200 235V244H0V235C0 195.236 32.2355 163 72 163H76V144.611C58.7626 136.422 46.3722 119.687 44.3051 99.8812C38.4803 99.0578 34 94.0521 34 88V74C34 68.054 38.3246 63.1181 44 62.1659V56C44 25.0721 69.0721 0 100 0C130.928 0 156 25.0721 156 56V62.1659C161.675 63.1181 166 68.054 166 74V88C166 94.0521 161.52 99.0578 155.695 99.8812C153.628 119.687 141.237 136.422 124 144.611Z" fill="#D0C6AC"/>
<path d="M232 0H-32V244H232V0Z" fill="#FD9841"/>
<path fill-rule="evenodd" clip-rule="evenodd" d="M156 79V102C156 132.928 130.928 158 100 158C69.0721 158 44 132.928 44 102V79V94C44 124.928 69.0721 150 100 150C130.928 150 156 124.928 156 94V79Z" fill="black" fill-opacity="0.1"/>
</g>
</svg>
